<?xml version="1.0" encoding="UTF-8" standalone="no"?>
<svg width="400px" height="400px" viewBox="0 0 400 400" version="1.1" xmlns="http://www.w3.org/2000/svg" xmlns:xlink="http://www.w3.org/1999/xlink" xmlns:sketch="http://www.bohemiancoding.com/sketch/ns">
    <!-- Generator: Sketch 3.1 (8751) - http://www.bohemiancoding.com/sketch -->
    <title>admin</title>
    <desc>Created with Sketch.</desc>
    <defs></defs>
    <g id="Page-1" stroke="none" stroke-width="1" fill="none" fill-rule="evenodd" sketch:type="MSPage">
        <g id="Admin" sketch:type="MSLayerGroup" transform="translate(34.000000, 64.000000)" fill="#2F5D9B">
            <path d="M249.838481,162.249455 C262.328911,145.30139 269.711915,124.347372 269.711915,101.666381 C269.711915,45.2662028 224.058849,-0.455175233 167.742939,-0.455175233 C111.427028,-0.455175233 65.7739625,45.2662028 65.7739625,101.666381 C65.7739625,124.243834 73.0897127,145.110044 85.4766592,162.017101 C52,173 0.5,201.291704 0.5,250.499994 L0.499994474,285.000048 L332.499989,284.999994 L332.499994,250.499994 C332.499994,201.809472 283.5,174 249.838481,162.249455 Z M246.320151,101.738799 C246.320151,58.2432903 211.112756,22.9832136 167.682234,22.9832136 C124.251712,22.9832136 89.0443174,58.2432903 89.0443174,101.738799 C89.0443174,134.339907 108.823566,162.314412 137.019547,174.282796 C72.2010352,181.745136 23.5127203,213.425247 23.5127203,251.374412 L23.5127203,261.875156 L309.230484,261.875156 L309.230484,251.374453 C309.230484,213.824588 261.561477,182.412574 197.764527,174.5264 C226.269099,162.697304 246.320151,134.563142 246.320151,101.738799 Z" id="Oval-14" sketch:type="MSShapeGroup"></path>
        </g>
    </g>
</svg>