<?xml version="1.0" encoding="UTF-8" standalone="no"?>
<svg width="400px" height="400px" viewBox="0 0 400 400" version="1.1" xmlns="http://www.w3.org/2000/svg" xmlns:xlink="http://www.w3.org/1999/xlink" xmlns:sketch="http://www.bohemiancoding.com/sketch/ns">
    <!-- Generator: Sketch 3.1 (8751) - http://www.bohemiancoding.com/sketch -->
    <title>api</title>
    <desc>Created with Sketch.</desc>
    <defs></defs>
    <g id="Page-1" stroke="none" stroke-width="1" fill="none" fill-rule="evenodd" sketch:type="MSPage">
        <g id="API" sketch:type="MSLayerGroup" transform="translate(5.000000, 80.000000)">
            <path d="M138,7 C138,7 108,3 87,12 C66,21 7,47.9999947 7,119 C7,190.000005 58,223.999995 85,235 C112,246.000005 138,240 138,240 L137,159 L190,159 L189,91 L140,89 L138,7 Z" id="Path-190" sketch:type="MSShapeGroup"></path>
            <path d="M224.607228,246.742045 L265.685614,246.742045 C333.746511,246.742045 388.92077,191.499007 388.92077,123.353267 C388.92077,55.2075271 333.746511,-0.035510291 265.685614,-0.035510291 L224.607228,-0.035510291 L224.607228,81.5198417 L275.95521,81.5198417 L275.95521,165.186693 L224.607228,165.186693 L224.607228,246.742045 L224.607228,246.742045 Z" id="Path" fill="#2F5D9B" sketch:type="MSShapeGroup"></path>
            <path d="M123.55006,246.742045 C55.4891626,246.742045 0.314903846,191.499007 0.314903846,123.353267 C0.314903846,55.2075271 55.4891626,-0.035510291 123.55006,-0.035510291 L144.089253,-0.035510291 L144.089252,71.3301208 L195.437234,71.3301208 L195.437234,175.425137 L144.089252,175.425137 L144.089253,246.742045 L123.55006,246.742045 Z" id="Path" stroke="#2F5D9B" stroke-width="20" sketch:type="MSShapeGroup"></path>
            <path d="M217.749322,125 L241.798033,125" id="Line" stroke="#D8222A" stroke-width="12" stroke-linecap="square" sketch:type="MSShapeGroup"></path>
            <path d="M260.51354,124.379535 L238.870757,139.265825 L238.870757,110.625898 L260.51354,124.379535 Z" id="Path-46" fill="#D8222A" sketch:type="MSShapeGroup"></path>
        </g>
    </g>
</svg>