<?xml version="1.0" encoding="UTF-8" standalone="no"?>
<svg width="400px" height="400px" viewBox="0 0 400 400" version="1.1" xmlns="http://www.w3.org/2000/svg" xmlns:xlink="http://www.w3.org/1999/xlink" xmlns:sketch="http://www.bohemiancoding.com/sketch/ns">
    <!-- Generator: Sketch 3.1 (8751) - http://www.bohemiancoding.com/sketch -->
    <title>consultancy</title>
    <desc>Created with Sketch.</desc>
    <defs></defs>
    <g id="Page-1" stroke="none" stroke-width="1" fill="none" fill-rule="evenodd" sketch:type="MSPage">
        <g id="Consultancy" sketch:type="MSLayerGroup" transform="translate(37.000000, 39.000000)">
            <circle id="Oval-3" stroke="#2F5D9B" stroke-width="26" sketch:type="MSShapeGroup" cx="160" cy="160" r="160"></circle>
            <text id="?" sketch:type="MSTextLayer" font-family="Superclarendon" font-size="58.2687075" font-weight="normal" sketch:alignment="middle" fill="#2F5D9B">
                <tspan x="85.7038382" y="122.87162">?</tspan>
            </text>
            <path d="M113.115401,200.008555 C122.688171,196.035957 129.42197,186.587584 129.42197,175.564094 C129.42197,160.956878 117.598174,149.115389 103.012782,149.115389 C88.4273902,149.115389 76.6035938,160.956878 76.6035938,175.564094 C76.6035938,186.512614 83.2461133,195.907369 92.7152476,199.926745 C70.9470679,202.432843 54.5959369,213.072062 54.5959369,225.816634 L54.5959369,229.343129 L150.549321,229.343129 L150.549321,225.816648 L150.549321,225.816634 C150.549321,213.206174 134.540507,202.65699 113.115401,200.008555 L113.115401,200.008555 Z" id="Oval-12" stroke="#2F5D9B" stroke-width="12" sketch:type="MSShapeGroup"></path>
            <path d="M225.191005,202.873959 C241.50914,202.873959 254.737601,189.625703 254.737601,173.28315 C254.737601,156.940598 241.50914,143.692342 225.191005,143.692342 C208.87287,143.692342 195.644408,156.940598 195.644408,173.28315 C195.644408,189.625703 208.87287,202.873959 225.191005,202.873959 Z" id="Oval-12" fill="#2F5D9B" sketch:type="MSShapeGroup"></path>
            <path d="M171.022244,236.015664 L171.022244,231.559636 C171.022244,213.102166 195.05395,198.139429 224.698562,198.139429 C254.343173,198.139429 278.374879,213.102166 278.374879,231.559636 L278.374879,231.559654 L278.374879,236.015664 L171.022244,236.015664 L171.022244,236.015664 Z" id="Oval-12" fill="#2F5D9B" sketch:type="MSShapeGroup"></path>
            <g id="Group" transform="translate(212.387480, 78.590316)" stroke="#D8222A" stroke-width="6" sketch:type="MSShapeGroup">
                <path d="M21.2820081,21.110848 C23.4703059,18.8707269 24.8191411,15.8052173 24.8191411,12.4242965 C24.8191411,5.56254703 19.2631871,0 12.4095706,0 C5.55595399,0 0,5.56254703 0,12.4242965 C0,15.6712136 1.24403135,18.6272269 3.2809197,20.8406265 C4.42758133,22.2510723 8.16871069,27.174486 8.34085891,31.5691382 C10.1717792,31.569536 14.4439264,31.569536 16.4782822,31.5691382 C16.315804,27.4213439 19.8516792,22.8025234 21.2820081,21.110848 L21.2820081,21.110848 Z" id="Oval-13"></path>
                <path d="M8.27304705,36.6926023 L16.5460941,36.6926023" id="Line" stroke-linecap="square"></path>
                <path d="M12.4095706,30.1826245 L12.4095706,20.7135658" id="Line-4" stroke-linecap="square"></path>
                <path d="M8.27304705,42.0189478 L16.5460941,42.0189478" id="Line-3" stroke-linecap="square"></path>
            </g>
        </g>
    </g>
</svg>