<?xml version="1.0" encoding="UTF-8" standalone="no"?>
<svg width="400px" height="400px" viewBox="0 0 400 400" version="1.1" xmlns="http://www.w3.org/2000/svg" xmlns:xlink="http://www.w3.org/1999/xlink" xmlns:sketch="http://www.bohemiancoding.com/sketch/ns">
    <!-- Generator: Sketch 3.1 (8751) - http://www.bohemiancoding.com/sketch -->
    <title>maps</title>
    <desc>Created with Sketch.</desc>
    <defs></defs>
    <g id="Page-1" stroke="none" stroke-width="1" fill="none" fill-rule="evenodd" sketch:type="MSPage">
        <g id="Maps" sketch:type="MSLayerGroup" transform="translate(24.000000, 39.000000)">
            <path d="M238.5,146.869224 L238.5,281.519318" id="Line" stroke="#2F5D9B" stroke-width="9" sketch:type="MSShapeGroup"></path>
            <path d="M122.5,82.5 L122.5,315.502151" id="Line" stroke="#2F5D9B" stroke-width="9" stroke-linecap="square" sketch:type="MSShapeGroup"></path>
            <path d="M275.5,38 C275.5,17.0131795 258.48682,0 237.5,0 C216.51318,0 199.5,17.0131795 199.5,38 C199.5,45.0095915 201.452554,51.2448387 204.250994,57.2185822 L237.927524,126.173689 L271.998421,54.8376808 C274.859583,49.4984198 275.5,44.4812918 275.5,38 Z" id="Oval-22" stroke="#D8232A" stroke-width="10" sketch:type="MSShapeGroup"></path>
            <circle id="Oval-22" stroke="#D8232A" stroke-width="7" sketch:type="MSShapeGroup" cx="237.5" cy="37.5" r="16.5"></circle>
            <path d="M341.249512,83.875 L340.998047,294 L238.432585,271.339019 L123.999512,301.75 L20.4980469,275 L19.9980469,62 L122.385886,88.5510549 C122.385886,88.5510549 183.017446,72.8880667 195.686433,69.5182474 L188.184136,50.3539879 C175.515148,53.7238071 122.374756,67.9375 122.374756,67.9375 L1.38523898,36.8111899 L0.312263124,290.044554 L124.356263,322.393752 L239.124512,291.875 L360.530603,318.731912 L361.263994,68.2440641 C361.263994,68.2440641 298.896276,52.7497036 287.118643,49.8406779 L278.494606,69.1273298 L341.249512,83.875 Z" id="Path-83" fill="#2F5D9B" sketch:type="MSShapeGroup"></path>
        </g>
    </g>
</svg>
