<?xml version="1.0" encoding="UTF-8" standalone="no"?>
<svg width="400px" height="400px" viewBox="0 0 400 400" version="1.1" xmlns="http://www.w3.org/2000/svg" xmlns:xlink="http://www.w3.org/1999/xlink" xmlns:sketch="http://www.bohemiancoding.com/sketch/ns">
    <!-- Generator: Sketch 3.1 (8751) - http://www.bohemiancoding.com/sketch -->
    <title>menu</title>
    <desc>Created with Sketch.</desc>
    <defs></defs>
    <g id="Page-1" stroke="none" stroke-width="1" fill="none" fill-rule="evenodd" sketch:type="MSPage">
        <g id="MOV-Logo" sketch:type="MSLayerGroup" transform="translate(7.000000, 6.000000)">
            <path d="M192.840575,153.877472 C229.060406,129.212682 271.362123,117.742351 271.362123,117.742351 C271.362123,117.742351 260.607052,157.10581 234.102591,193.50452 C233.486973,171.513056 215.466332,153.874643 193.326019,153.874643 C193.163982,153.874643 193.002165,153.875588 192.840575,153.877472 Z M152.565361,193.032485 C126.201646,229.789185 114.232148,274.026017 114.232148,274.026017 C114.232148,274.026017 154.779544,262.093134 191.803399,235.432407 C169.979605,234.631599 152.533194,216.686947 152.533194,194.667468 C152.533194,194.119886 152.543984,193.574825 152.565361,193.032485 Z" id="Path-96" fill="#D8222A" sketch:type="MSShapeGroup"></path>
            <path d="M181.092769,38.7424456 C105.250484,44.8199411 44.7621732,105.308251 38.686656,181.150536 C27.922949,188.089548 21.5981757,193.736978 21.5981757,193.736978 C21.5981757,193.736978 27.922949,199.384605 38.686656,206.323617 C44.7603928,282.165902 105.250484,342.655993 181.092769,348.729729 C188.03178,359.491656 193.67921,365.818012 193.67921,365.818012 C193.67921,365.818012 199.324859,359.491656 206.265849,348.729729 C282.108134,342.654212 342.596246,282.165902 348.671962,206.323617 C359.43369,199.384605 365.760244,193.736978 365.760244,193.736978 C365.760244,193.736978 359.43369,188.089548 348.671962,181.148558 C343.45796,105.7399 284.534226,46.0321959 206.265849,38.7424456 C199.324859,27.9807169 193.67921,21.6559436 193.67921,21.6559436 C193.67921,21.6559436 188.03178,27.9807169 181.092769,38.7424456 L181.092769,38.7424456 L181.092769,38.7424456 Z M325.01143,192.249552 C325.01143,265.010756 266.026965,323.997001 193.265761,323.997001 C120.502778,323.997001 61.5181143,265.010756 61.5181143,192.249552 C61.5181143,119.488349 120.502778,60.502103 193.265761,60.502103 C266.026965,60.502103 325.01143,119.488349 325.01143,192.249552 L325.01143,192.249552 L325.01143,192.249552 Z" id="Clip-3" fill="#2F5D9B" sketch:type="MSShapeGroup"></path>
        </g>
    </g>
</svg>