<?xml version="1.0" encoding="UTF-8" standalone="no"?>
<svg width="400px" height="400px" viewBox="0 0 400 400" version="1.1" xmlns="http://www.w3.org/2000/svg" xmlns:xlink="http://www.w3.org/1999/xlink" xmlns:sketch="http://www.bohemiancoding.com/sketch/ns">
    <!-- Generator: Sketch 3.1 (8751) - http://www.bohemiancoding.com/sketch -->
    <title>msl</title>
    <desc>Created with Sketch.</desc>
    <defs></defs>
    <g id="Page-1" stroke="none" stroke-width="1" fill="none" fill-rule="evenodd" sketch:type="MSPage">
        <g id="Old-Admin-Favicon" sketch:type="MSLayerGroup" transform="translate(21.000000, 46.000000)">
            <path d="M33.8781879,171.649682 L51.9467122,100.714266 L68.3483886,100.714266 L82.8204168,161.538539 L127.980055,100.714266 L144.705896,100.714266 L126.741425,171.649682 L117.315297,171.649682 L133.706301,106.766011 L133.486189,106.766011 L85.1796168,171.649682 L75.7528217,171.649682 L60.2589404,106.766011 L60.0388284,106.766011 L43.531098,171.649682 L33.8781879,171.649682" id="Fill-1" fill="#2B6CA7" sketch:type="MSShapeGroup"></path>
            <path d="M191.213084,109.047666 C198.466136,109.047666 204.25908,109.28169 208.641097,109.727692 C212.994285,110.175391 216.28758,111.047046 218.520984,112.37827 C221.081683,114.036789 222.372207,116.380421 222.372207,119.402385 C222.372207,121.077862 221.843109,123.360445 220.786609,126.256917 L209.446615,126.256917 C209.492402,125.936406 209.667072,125.115626 210.007933,123.774227 C210.343707,122.443002 210.49294,121.406852 210.49294,120.689517 C210.49294,119.207365 210.138512,118.206827 209.446615,117.686208 C208.437598,116.578833 206.302552,115.873369 203.082176,115.559641 C199.846539,115.223867 195.008345,115.072939 188.582857,115.072939 C182.084448,115.203517 177.405662,115.368013 174.568543,115.566424 C171.716162,115.758053 168.996056,116.343113 166.394658,117.345347 C164.468198,118.088119 162.964,119.146315 161.938025,120.535197 C160.908658,121.925775 160.187931,123.380795 159.789412,124.93926 C159.377326,126.492637 159.055119,128.14946 158.849924,129.914816 C159.144998,132.331369 160.291377,133.93223 162.290757,134.756401 C163.803434,135.394032 165.790943,135.836643 168.229542,136.038447 C170.671533,136.236858 173.790159,136.357262 177.539632,136.357262 C181.304368,136.357262 183.876937,136.406441 185.260732,136.462403 C188.43532,136.579415 191.158818,136.684557 193.434617,136.757477 C195.69685,136.850748 197.948908,136.969456 200.197575,137.159388 C202.436066,137.347625 204.435446,137.629132 206.143144,137.971689 C207.862712,138.314246 209.316036,138.826386 210.49294,139.477583 C213.224917,141.034353 214.583274,143.362723 214.583274,146.494915 C214.583274,150.836232 213.402979,155.085974 211.023734,159.244142 C208.641097,163.398918 204.934019,166.436143 199.921155,168.365994 C196.051278,169.625994 191.806623,170.426424 187.185495,170.731673 C182.567759,171.062359 176.684935,171.213288 169.555679,171.213288 L165.322895,171.213288 C159.84707,171.213288 154.995309,170.977568 150.79305,170.50952 C146.600966,170.053342 143.292408,169.108767 140.882638,167.696143 C138.511872,166.269952 137.200998,164.045028 136.909316,161.033239 C137.131469,158.489499 138.011603,155.355611 139.556501,151.660404 L150.660776,151.660404 C150.496281,152.321776 150.143549,153.558034 149.572055,155.347131 C148.99717,157.1481 148.671571,158.548853 148.554559,159.573132 C148.851328,161.338488 149.526268,162.5527 150.642122,163.247989 C151.747801,163.924624 153.229953,164.411326 155.086884,164.679267 C156.952294,164.930249 159.6724,165.081178 163.289599,165.126965 C166.877968,165.17784 168.702678,165.199886 168.746769,165.199886 L175.36219,165.199886 C180.524287,165.081178 184.419602,164.920074 187.056612,164.708096 C189.68684,164.506292 191.993164,164.024678 193.995936,163.247989 C197.187482,162.023602 199.463282,160.044572 200.818248,157.290549 C202.169822,154.558572 202.844761,151.68245 202.844761,148.707969 C202.844761,147.068105 202.407237,145.85898 201.525407,145.117904 C200.509607,144.200461 198.908746,143.630664 196.685517,143.396639 C194.462288,143.162615 190.497445,142.926895 184.743504,142.667434 C182.111581,142.599601 179.025176,142.514809 175.462244,142.407972 C171.894224,142.302831 168.494091,142.13664 165.263541,141.914487 C162.038078,141.678767 159.155173,141.337906 156.613128,140.86477 C154.05243,140.384851 152.158191,139.770962 150.910062,138.995969 C148.671571,137.688486 147.40818,135.404207 147.116498,132.141436 C147.348826,130.272635 147.733779,128.378397 148.293401,126.492637 C148.851328,124.583136 149.644975,122.79743 150.642122,121.088037 C151.640964,119.382035 152.9671,117.80322 154.586615,116.343113 C156.231567,114.883006 158.259776,113.624703 160.686504,112.578377 C164.286745,111.070787 168.453391,110.105862 173.142353,109.693776 C177.848272,109.259644 183.876937,109.047666 191.213084,109.047666" id="Fill-9" fill="#2B6CA7" sketch:type="MSShapeGroup"></path>
            <path d="M236.487607,109.047666 L247.848819,109.047666 L228.686184,165.344936 L280.035746,165.344936 L277.907141,171.491931 L214.940243,171.491931 L236.487607,109.047666" id="Fill-18" fill="#2B6CA7" sketch:type="MSShapeGroup"></path>
            <path d="M116.526619,45.4953762 C116.012979,45.9218948 115.158426,46.8590235 116.164495,46.4529596 C310.459989,-32.6113096 356.930058,83.635833 345.172388,142.178726 C344.595111,146.270425 344.239805,148.941659 345.42239,146.649216 C387.391666,41.1324625 283.067346,-62.0918486 116.526619,45.4953762" id="Fill-22" fill="#C8C7C3" sketch:type="MSShapeGroup"></path>
            <path d="M5.52872424,165.06028 C5.82190841,164.561034 6.76888568,158.654926 4.35144209,164.986037 C-35.1867532,325.445655 193.680988,287.427926 246.326106,204.724234 C254.433747,193.069595 246.588987,202.672703 245.329886,204.093169 C192.518857,258.101934 3.80068011,293.06585 5.52872424,165.06028" id="Fill-23" fill="#1A1918" sketch:type="MSShapeGroup"></path>
            <path d="M213.566652,33.4784083 C205.828712,33.4784083 186.672498,32.2594592 206.597657,36.0140347 C411.982635,74.7673751 227.573583,350.478673 32.1803522,276.77278 C10.4089658,265.213596 -6.13813632,254.558208 23.0484609,278.802342 C229.452386,405.829116 494.13708,46.4057845 213.566652,33.4784083" id="Fill-24" fill="#2B6CA7" sketch:type="MSShapeGroup"></path>
        </g>
    </g>
</svg>