<?xml version="1.0" encoding="UTF-8" standalone="no"?>
<svg width="400px" height="400px" viewBox="0 0 400 400" version="1.1" xmlns="http://www.w3.org/2000/svg" xmlns:xlink="http://www.w3.org/1999/xlink" xmlns:sketch="http://www.bohemiancoding.com/sketch/ns">
    <!-- Generator: Sketch 3.1 (8751) - http://www.bohemiancoding.com/sketch -->
    <title>review</title>
    <desc>Created with Sketch.</desc>
    <defs></defs>
    <g id="Page-1" stroke="none" stroke-width="1" fill="none" fill-rule="evenodd" sketch:type="MSPage">
        <g id="Review" sketch:type="MSLayerGroup" transform="translate(74.000000, 72.000000)">
            <g id="Group" fill="#2F5D9B" sketch:type="MSShapeGroup">
                <path d="M10.1453033,-0.237711589 L0.145303328,-0.237711589 L0.145303328,19.7622884 L10.1453033,19.7622884 L232.387949,19.7622884 L242.387949,19.7622884 L242.387949,-0.237711589 L232.387949,-0.237711589 L10.1453033,-0.237711589 Z" id="Line-2"></path>
                <path d="M10.1453033,57.7622884 L0.145303328,57.7622884 L0.145303328,77.7622884 L10.1453033,77.7622884 L232.387949,77.7622884 L242.387949,77.7622884 L242.387949,57.7622884 L232.387949,57.7622884 L10.1453033,57.7622884 Z" id="Line-3"></path>
                <path d="M10.1453033,115.762288 L0.145303328,115.762288 L0.145303328,135.762288 L10.1453033,135.762288 L232.387949,135.762288 L242.387949,135.762288 L242.387949,115.762288 L232.387949,115.762288 L10.1453033,115.762288 Z" id="Line-4"></path>
                <path d="M10.1453033,173.762288 L0.145303328,173.762288 L0.145303328,193.762288 L10.1453033,193.762288 L157.94726,193.762288 L167.655267,173.762288 L10.1453033,173.762288 Z" id="Line-5"></path>
                <path d="M10.1453033,231.762288 L0.145303328,231.762288 L0.145303328,251.762288 L10.1453033,251.762288 L162.333978,251.762288 L157.301752,231.762288 L10.1453033,231.762288 Z" id="Line-6"></path>
            </g>
            <path d="M177.230484,221.251934 L198.631385,242.149823 L247.652932,192.619313" id="Path" stroke="#D8232A" stroke-width="20" sketch:type="MSShapeGroup"></path>
            <circle id="Oval-30" stroke="#2F5D9B" stroke-width="9" sketch:type="MSShapeGroup" cx="215" cy="216" r="60.640625"></circle>
        </g>
    </g>
</svg>