<?xml version="1.0" encoding="UTF-8" standalone="no"?>
<svg width="400px" height="400px" viewBox="0 0 400 400" version="1.1" xmlns="http://www.w3.org/2000/svg" xmlns:xlink="http://www.w3.org/1999/xlink" xmlns:sketch="http://www.bohemiancoding.com/sketch/ns">
    <!-- Generator: Sketch 3.1 (8751) - http://www.bohemiancoding.com/sketch -->
    <title>ukc</title>
    <desc>Created with Sketch.</desc>
    <defs></defs>
    <g id="Page-1" stroke="none" stroke-width="1" fill="none" fill-rule="evenodd" sketch:type="MSPage">
        <g id="UKC" sketch:type="MSLayerGroup" transform="translate(40.000000, 39.000000)">
            <path d="M158.227147,288.288455 L158.227147,259.147781" id="Stroke-127" stroke="#D9222A" stroke-width="13" sketch:type="MSShapeGroup"></path>
            <path d="M158.389865,247.191319 L180.506013,262.625677 L136.588406,262.625677 L158.389865,247.191319 Z" id="Path-40" fill="#D8232A" sketch:type="MSShapeGroup"></path>
            <path d="M158.389865,300.33013 L180.506013,284.895772 L136.588406,284.895772 L158.389865,300.33013 Z" id="Path-41" fill="#D8232A" sketch:type="MSShapeGroup"></path>
            <path d="M201.193762,115.658031 L119.808284,115.658031 L119.808284,79.1374068 L201.193762,79.1374068 L201.193762,115.658031 Z" id="Stroke-119" stroke="#2F5D9B" stroke-width="12" sketch:type="MSShapeGroup"></path>
            <path d="M190.357617,101.964261 L130.627301,101.964261 L130.627301,92.7193561 L190.357617,92.7193561 L190.357617,101.964261 Z" id="Fill-120" fill="#2F5D9B" sketch:type="MSShapeGroup"></path>
            <path d="M214.092253,187.922438 L306.348558,187.922438" id="Line" stroke="#2F5D9B" stroke-width="12" stroke-linecap="square" sketch:type="MSShapeGroup"></path>
            <path d="M204.469067,203.878116 L306.348558,203.878116" id="Line-2" stroke="#2F5D9B" stroke-width="8" stroke-linecap="square" sketch:type="MSShapeGroup"></path>
            <path d="M192.305325,219.833795 L307.094919,219.833795" id="Line-3" stroke="#2F5D9B" stroke-width="6" stroke-linecap="square" sketch:type="MSShapeGroup"></path>
            <path d="M12.792925,187.922438 L102.485646,187.922438" id="Line-6" stroke="#2F5D9B" stroke-width="12" stroke-linecap="square" sketch:type="MSShapeGroup"></path>
            <path d="M12.792925,203.878116 L114.644506,203.878116" id="Line-4" stroke="#2F5D9B" stroke-width="8" stroke-linecap="square" sketch:type="MSShapeGroup"></path>
            <path d="M12.0264402,218.947368 L125.872576,218.947368" id="Line-5" stroke="#2F5D9B" stroke-width="6" stroke-linecap="square" sketch:type="MSShapeGroup"></path>
            <path d="M159.195478,115.475936 L98.157452,115.475936 C98.157452,115.475936 99.8029153,171.25714 105.665961,185.897433 C108.671096,193.410271 118.054567,208.046234 128.858332,221.937408 C144.230423,241.704618 174.160533,241.704618 189.532624,221.937408 C200.336389,208.046234 209.71986,193.410271 212.724995,185.897433 C218.588041,171.25714 220.233504,115.475936 220.233504,115.475936 L159.195478,115.475936 L159.195478,115.475936 Z" id="Stroke-117" stroke="#2F5D9B" stroke-width="12" sketch:type="MSShapeGroup"></path>
            <path d="M159.195478,115.475936 L98.157452,115.475936 C98.157452,115.475936 99.8029153,171.25714 105.665961,185.897433 C108.671096,193.410271 118.054567,208.046234 128.858332,221.937408 C144.230423,241.704618 174.160533,241.704618 189.532624,221.937408 C200.336389,208.046234 209.71986,193.410271 212.724995,185.897433 C218.588041,171.25714 220.233504,115.475936 220.233504,115.475936 L159.195478,115.475936 L159.195478,115.475936 Z" id="Stroke-118" stroke="#2F5D9B" stroke-width="12" sketch:type="MSShapeGroup"></path>
            <circle id="Oval-2" stroke="#2F5D9B" stroke-width="26" sketch:type="MSShapeGroup" cx="159.556787" cy="159.556787" r="160"></circle>
        </g>
    </g>
</svg>