<?xml version="1.0" encoding="UTF-8" standalone="no"?>
<svg width="400px" height="400px" viewBox="0 0 400 400" version="1.1" xmlns="http://www.w3.org/2000/svg" xmlns:xlink="http://www.w3.org/1999/xlink" xmlns:sketch="http://www.bohemiancoding.com/sketch/ns">
    <!-- Generator: Sketch 3.1 (8751) - http://www.bohemiancoding.com/sketch -->
    <title>wave-model</title>
    <desc>Created with Sketch.</desc>
    <defs></defs>
    <g id="Page-1" stroke="none" stroke-width="1" fill="none" fill-rule="evenodd" sketch:type="MSPage">
        <g id="Wave-Models" sketch:type="MSLayerGroup" transform="translate(17.359788, 103.500000)" fill="#2F5D9B">
            <path d="M243.745188,87.4817556 C239.286587,64.8702789 260.152323,43.9073335 300.976061,33.3174947 L324.923085,27.1055422 L303.3857,14.9322376 C292.712987,8.89983492 282.210031,4.7080365 271.654638,2.31384385 C236.972325,-5.55285882 202.381809,5.68043267 157.982979,37.1277002 C138.371434,51.0183711 116.307824,69.1535761 88.3833242,94.0434578 C66.8527366,113.234268 50.1652347,128.685317 0.419026406,175.191432 L30.138259,175.191435 C30.138259,175.191435 80.326828,128.015967 101.69093,108.97355 C129.106975,84.5368665 150.644762,66.8338628 169.54286,53.4485198 C209.755479,24.9663051 239.097972,15.4373127 267.230581,21.8184001 C275.810828,23.7645868 284.506846,27.2352246 293.544555,32.3434945 L295.954194,13.9582374 C246.156837,26.8758679 217.154952,56.0128687 224.123017,91.350916 C231.312568,127.812211 264.795468,155.581496 319.795468,175.191436 L363.638265,175.191435 C291.010813,148.506173 249.214737,115.22018 243.745188,87.4817556 Z" id="Stroke-82" sketch:type="MSShapeGroup"></path>
        </g>
    </g>
</svg>